<?xml version="1.0" encoding="UTF-8"?>
<svg xmlns="http://www.w3.org/2000/svg" xmlns:xlink="http://www.w3.org/1999/xlink" version="1.2" >
<font id="Boulia Round">
<font-face  font-family="Boulia" units-per-em="1000" ascent="765" descent="-200" font-style="normal" font-weight="400" font-stretch="normal" cap-height="699" x-height="700" underline-position="0" underline-thickness="0" />
<missing-glyph  horiz-adv-x="500" d="" />
<glyph glyph-name="NULL" d="" />
<glyph glyph-name="&amp;#x0;" d="" />
<glyph glyph-name="&amp;#xd;" unicode="&#xd;" d="" />
<glyph glyph-name="space" unicode="&#x20;" horiz-adv-x="389" d="" />
<glyph glyph-name="controlLF" unicode="&#xa;" d="" />
<glyph glyph-name="zero" unicode="0" horiz-adv-x="801" d="M50 356 C50 128 177 -2 401 -2 C625 -2 752 128 752 356 C752 574 615 714 402 714 C189 714 51 574 51 356 L50 356 Z M160 356 C160 522 255 629 402 629 C549 629 644 522 644 356 C644 182 556 83 401 83 C246 83 159 182 159 356 L160 356 Z " />
<glyph glyph-name="one" unicode="1" horiz-adv-x="425" d="M375 58.5 L375 665.5 C375 687.855 356.855 706 334.5 706 L312.383 706 C306.699 706 283.481 698.887 278.772 695.703 L76.3897 558.845 C64.3233 550.686 50 523.709 50 509.143 L50 477.5 C50 448.458 78.5514 433.291 102.615 449.551 L178.409 500.763 C221.213 529.685 272 502.707 272 451.047 L272 58.5 C272 30.0735 295.074 7 323.5 7 C351.926 7 375 30.0735 375 58.5 L375 58.5 Z " />
<glyph glyph-name="two" unicode="2" horiz-adv-x="727" d="M214.177 131.177 C259.38 177.97 334.35 221.15 444 273 C571 333 663 425 663 492 C663 622 536 715 360 715 C185 715 57 627 57 506 C57 464.35 69.2825 416.197 87.7062 383.651 C93.8623 372.776 104.3 371.287 115.379 377.067 L176.431 408.92 C183.108 412.404 185.811 421.279 181.818 427.664 C167.115 451.175 157 482.2 157 506 C157 578 242 630 359 630 C475 630 559 575 559 500 C559 455 446 369 291 296 C147.35 228.85 72.3375 169.648 53.0659 66.1919 C45.8903 27.6714 68.8169 7 108 7 L625 7 C652.599 7 675 29.4015 675 57 C675 84.5984 652.598 106.954 625 106.896 L228.107 106.073 C211.303 106.038 202.502 119.092 214.177 131.177 L214.177 131.177 Z " />
<glyph glyph-name="three" unicode="3" horiz-adv-x="721" d="M116 235 L104 235 C67.056 235 47.0927 221.352 55.9395 185.482 C83.2969 74.5625 202.625 -2 361 -2 C541 -2 671 84 671 201 C671 278.35 621.148 341.972 542.937 373.444 C534.078 377.009 533.052 396.99 541.855 400.69 C604.524 427.029 644 475.25 644 533 C644 638 526 713 362 713 C222.6 713 116.435 650.865 87.722 559.758 C76.5013 524.154 94.6701 509 132 509 L149.5 509 C161.488 509 186.111 532.179 190.552 543.313 C210.757 593.969 275.85 628 360 628 C470 628 549 584 549 523 C549 462 469 418 358 418 L320.5 418 C299.801 418 283 401.199 283 380.5 L283 366 C283 350.545 295.545 338 311 338 L339 338 C468 338 561 281 561 203 C561 137 478 89 362 89 C265.475 89 189.709 130.858 166.147 192.676 C160.831 206.623 130.926 235 116 235 L116 235 Z " />
<glyph glyph-name="four" unicode="4" horiz-adv-x="764" d="M50 277.141 L50 259.5 C50 237.147 68.1455 219.211 90.4973 219.471 L136 220 L329 220 C362.118 220 389 193.118 389 160 L389 58.5 C389 30.0735 412.074 7 440.5 7 C468.926 7 492 30.0735 492 58.5 L492 160 C492 193.118 518.882 220 552 220 L668 220 C693.391 220 714 240.609 714 266 C714 291.391 693.391 312 668 312 L552 312 C518.882 312 492 338.882 492 372 L492 664.5 C492 686.855 473.855 705 451.5 705 L437.894 705 C426.813 705 400.478 693.196 393.105 684.924 L65.2104 317.064 C59.624 310.797 50 285.536 50 277.141 L50 277.141 Z M239.015 395.169 L378.465 549.776 C383.336 555.177 391.941 551.212 391 544 L388.504 524.864 C388.468 524.588 388 517.382 388 517.103 L388 371.268 C388 338.002 360.998 311.121 327.732 311.269 L276 311.5 C229.909 311.706 208.145 360.943 239.015 395.169 L239.015 395.169 Z " />
<glyph glyph-name="five" unicode="5" horiz-adv-x="721" d="M129 320.5 L154.154 314.715 C162.173 312.87 190.663 320.449 197.307 325.303 C237.255 354.493 305.85 374 373 374 C481 374 559 312 559 226 C559 148 476 91 360 91 C263.475 91 188.049 132.518 164.606 194.217 C159.297 208.191 129.949 236 115 236 L103 236 C66.056 236 46.0927 222.352 54.9395 186.482 C82.2969 75.5625 201.625 -1 360 -1 C540 -1 670 94 670 226 C670 361 553 459 392 459 C339.3 459 286.6 448.885 244.954 432.954 C236.67 429.785 229.69 438.426 232.945 446.677 L280.017 566.016 C287.71 585.52 314.866 604 335.832 604 L584.88 604 C613.031 604 637.573 626.916 639.5 655 C641.427 683.084 620.031 706 591.88 706 L236.55 706 C213.011 706 185.923 685.887 179.115 663.354 L93.8389 381.113 C85.6668 354.065 101.464 326.833 129 320.5 L129 320.5 Z " />
<glyph glyph-name="six" unicode="6" horiz-adv-x="736" d="M641.11 624.602 C589.087 677.597 489.85 713 387 713 C172 713 50 561 50 350 C50 125 169 -3 379 -3 C557 -3 687 97 687 234 C687 369 567 467 401 467 C305.8 467 217.825 434.488 175.765 387.272 C170.605 381.48 158.419 387.831 158.96 395.569 C168.677 534.459 249.175 632 387 632 C460.95 632 532.732 605.99 570.413 567.481 C578.911 558.796 601.131 554.993 611.382 561.516 L630.357 573.591 C653.734 588.467 660.521 604.827 641.11 624.602 L641.11 624.602 Z M381 383 C494 383 575 321 575 235 C575 146 493 83 379 83 C273.55 83 201.493 140.76 172.259 246.849 C170.426 253.501 170.196 272.597 172.809 278.983 C197.457 339.219 281.1 382 381 382 L381 383 Z " />
<glyph glyph-name="seven" unicode="7" horiz-adv-x="671" d="M50 655 C50 627.401 72.4015 605 100 605 L380.929 605 C398.71 605 406.377 568.423 391.952 558.028 C273.156 472.42 216.105 312.98 209.625 55.9689 C208.798 23.1582 234.179 5 267 5 C298.125 5 324.813 23.9939 325.678 55.1066 C333.61 340.473 411.444 505.367 576.597 585.297 C593.42 593.439 621 627.317 621 646.008 L621 654 C621 681.598 598.598 704.039 571 704.088 L99.9999 704.912 C72.4015 704.961 50 682.598 50 655 L50 655 Z " />
<glyph glyph-name="eight" unicode="8" horiz-adv-x="730" d="M77 532 C77 474.25 110.351 426.029 178.175 396.321 C189.413 391.398 191.971 370.342 180.52 365.937 C99.8525 334.912 50 278.6 50 197 C50 82 155 -1 365 -1 C548 -1 680 64 680 195 C680 272 634.828 334.453 545.154 368.291 C534.652 372.254 538.307 391.289 548.69 395.556 C613.843 422.327 654 467.475 654 531 C654 636 550 712 366 712 C199 712 78 647 78 531 L77 532 Z M163 201 C163 288 249 331 366 331 C502 331 570 277 570 203 C570 122 484 81 366 81 C231 81 163 131 163 201 L163 201 Z M172 522 C172 589 253 627 364 627 C486 627 556 583 556 522 C556 457 475 424 364 424 C236 424 172 465 172 522 L172 522 Z " />
<glyph glyph-name="nine" unicode="9" horiz-adv-x="736" d="M94.8904 86.3979 C146.912 33.4025 246.15 -2 349 -2 C564 -2 686 150 686 361 C686 586 567 714 357 714 C179 714 49 614 49 477 C49 342 169 244 335 244 C430.2 244 518.175 276.513 560.235 323.728 C565.395 329.52 577.581 323.169 577.04 315.431 C567.323 176.541 486.825 79 349 79 C275.05 79 203.267 105.01 165.587 143.519 C157.089 152.204 134.869 156.007 124.618 149.484 L105.643 137.409 C82.2655 122.533 75.4788 106.173 94.8904 86.3979 L94.8904 86.3979 Z M355 328 C242 328 161 390 161 476 C161 565 243 628 357 628 C462.45 628 534.508 570.24 563.741 464.151 C565.574 457.499 565.804 438.403 563.191 432.017 C538.543 371.781 454.9 329 355 329 L355 328 Z " />
<glyph glyph-name="A" unicode="A" horiz-adv-x="908" d="M52.7042 0 L131.604 0 C150.136 0 177.309 16.9361 185.471 33.5731 L401.617 474.149 C425.218 522.255 486.309 522.025 509.548 473.743 L638.428 205.966 C638.447 205.926 638.519 205.96 638.5 206 C633.27 216.959 615.766 228 603.623 228 L320.304 228 C301.838 228 274.666 211.106 266.496 194.545 L264.5 190.5 C255.342 171.937 267.116 153 287.815 153 L627.264 153 C646.038 153 673.213 135.909 681.344 118.987 L722.656 33.0133 C730.787 16.0913 757.962 -1 776.736 -1 L855.307 -1 C856.687 -1 857.512 0.218772 857 1.5 L856 4 L534.427 664.272 C526.275 681.009 499.101 698 480.484 698 L404.693 698 C403.313 698 401.512 696.781 401 695.5 L400 693 L54.7149 6.41587 C54.6333 6.25354 52.1008 1.90118 52 1.75 C51.3111 0.71665 51.4622 0 52.7042 0 L52.7042 0 Z " />
<glyph glyph-name="&amp;#xc0;" unicode="&#xc0;" horiz-adv-x="908" d="M52.7042 0 L131.604 0 C150.136 0 177.309 16.9361 185.471 33.5731 L401.617 474.149 C425.218 522.255 486.309 522.025 509.548 473.743 L638.428 205.966 C638.447 205.926 638.519 205.96 638.5 206 C633.27 216.959 615.766 228 603.623 228 L320.304 228 C301.838 228 274.666 211.106 266.496 194.545 L264.5 190.5 C255.342 171.937 267.116 153 287.815 153 L627.264 153 C646.038 153 673.213 135.909 681.344 118.987 L722.656 33.0133 C730.787 16.0913 757.962 -1 776.736 -1 L855.307 -1 C856.687 -1 857.512 0.218772 857 1.5 L856 4 L534.427 664.272 C526.275 681.009 499.101 698 480.484 698 L404.693 698 C403.313 698 401.512 696.781 401 695.5 L400 693 L54.7149 6.41587 C54.6333 6.25354 52.1008 1.90118 52 1.75 C51.3111 0.71665 51.4622 0 52.7042 0 L52.7042 0 Z " />
<glyph glyph-name="&amp;#xc1;" unicode="&#xc1;" horiz-adv-x="908" d="M52.7042 0 L131.604 0 C150.136 0 177.309 16.9361 185.471 33.5731 L401.617 474.149 C425.218 522.255 486.309 522.025 509.548 473.743 L638.428 205.966 C638.447 205.926 638.519 205.96 638.5 206 C633.27 216.959 615.766 228 603.623 228 L320.304 228 C301.838 228 274.666 211.106 266.496 194.545 L264.5 190.5 C255.342 171.937 267.116 153 287.815 153 L627.264 153 C646.038 153 673.213 135.909 681.344 118.987 L722.656 33.0133 C730.787 16.0913 757.962 -1 776.736 -1 L855.307 -1 C856.687 -1 857.512 0.218772 857 1.5 L856 4 L534.427 664.272 C526.275 681.009 499.101 698 480.484 698 L404.693 698 C403.313 698 401.512 696.781 401 695.5 L400 693 L54.7149 6.41587 C54.6333 6.25354 52.1008 1.90118 52 1.75 C51.3111 0.71665 51.4622 0 52.7042 0 L52.7042 0 Z " />
<glyph glyph-name="&amp;#xc2;" unicode="&#xc2;" horiz-adv-x="908" d="M52.7042 0 L131.604 0 C150.136 0 177.309 16.9361 185.471 33.5731 L401.617 474.149 C425.218 522.255 486.309 522.025 509.548 473.743 L638.428 205.966 C638.447 205.926 638.519 205.96 638.5 206 C633.27 216.959 615.766 228 603.623 228 L320.304 228 C301.838 228 274.666 211.106 266.496 194.545 L264.5 190.5 C255.342 171.937 267.116 153 287.815 153 L627.264 153 C646.038 153 673.213 135.909 681.344 118.987 L722.656 33.0133 C730.787 16.0913 757.962 -1 776.736 -1 L855.307 -1 C856.687 -1 857.512 0.218772 857 1.5 L856 4 L534.427 664.272 C526.275 681.009 499.101 698 480.484 698 L404.693 698 C403.313 698 401.512 696.781 401 695.5 L400 693 L54.7149 6.41587 C54.6333 6.25354 52.1008 1.90118 52 1.75 C51.3111 0.71665 51.4622 0 52.7042 0 L52.7042 0 Z " />
<glyph glyph-name="&amp;#xc3;" unicode="&#xc3;" horiz-adv-x="908" d="M52.7042 0 L131.604 0 C150.136 0 177.309 16.9361 185.471 33.5731 L401.617 474.149 C425.218 522.255 486.309 522.025 509.548 473.743 L638.428 205.966 C638.447 205.926 638.519 205.96 638.5 206 C633.27 216.959 615.766 228 603.623 228 L320.304 228 C301.838 228 274.666 211.106 266.496 194.545 L264.5 190.5 C255.342 171.937 267.116 153 287.815 153 L627.264 153 C646.038 153 673.213 135.909 681.344 118.987 L722.656 33.0133 C730.787 16.0913 757.962 -1 776.736 -1 L855.307 -1 C856.687 -1 857.512 0.218772 857 1.5 L856 4 L534.427 664.272 C526.275 681.009 499.101 698 480.484 698 L404.693 698 C403.313 698 401.512 696.781 401 695.5 L400 693 L54.7149 6.41587 C54.6333 6.25354 52.1008 1.90118 52 1.75 C51.3111 0.71665 51.4622 0 52.7042 0 L52.7042 0 Z " />
<glyph glyph-name="&amp;#xc4;" unicode="&#xc4;" horiz-adv-x="908" d="M52.7042 0 L131.604 0 C150.136 0 177.309 16.9361 185.471 33.5731 L401.617 474.149 C425.218 522.255 486.309 522.025 509.548 473.743 L638.428 205.966 C638.447 205.926 638.519 205.96 638.5 206 C633.27 216.959 615.766 228 603.623 228 L320.304 228 C301.838 228 274.666 211.106 266.496 194.545 L264.5 190.5 C255.342 171.937 267.116 153 287.815 153 L627.264 153 C646.038 153 673.213 135.909 681.344 118.987 L722.656 33.0133 C730.787 16.0913 757.962 -1 776.736 -1 L855.307 -1 C856.687 -1 857.512 0.218772 857 1.5 L856 4 L534.427 664.272 C526.275 681.009 499.101 698 480.484 698 L404.693 698 C403.313 698 401.512 696.781 401 695.5 L400 693 L54.7149 6.41587 C54.6333 6.25354 52.1008 1.90118 52 1.75 C51.3111 0.71665 51.4622 0 52.7042 0 L52.7042 0 Z " />
<glyph glyph-name="&amp;#xc5;" unicode="&#xc5;" horiz-adv-x="908" d="M52.7042 0 L131.604 0 C150.136 0 177.309 16.9361 185.471 33.5731 L401.617 474.149 C425.218 522.255 486.309 522.025 509.548 473.743 L638.428 205.966 C638.447 205.926 638.519 205.96 638.5 206 C633.27 216.959 615.766 228 603.623 228 L320.304 228 C301.838 228 274.666 211.106 266.496 194.545 L264.5 190.5 C255.342 171.937 267.116 153 287.815 153 L627.264 153 C646.038 153 673.213 135.909 681.344 118.987 L722.656 33.0133 C730.787 16.0913 757.962 -1 776.736 -1 L855.307 -1 C856.687 -1 857.512 0.218772 857 1.5 L856 4 L534.427 664.272 C526.275 681.009 499.101 698 480.484 698 L404.693 698 C403.313 698 401.512 696.781 401 695.5 L400 693 L54.7149 6.41587 C54.6333 6.25354 52.1008 1.90118 52 1.75 C51.3111 0.71665 51.4622 0 52.7042 0 L52.7042 0 Z " />
<glyph glyph-name="B" unicode="B" horiz-adv-x="785" d="M574.601 385.184 C648.398 412.979 694 458.725 694 514 C694 643 592 699 361 699 L109 699 C75.8818 699 49 672.118 49 639 L49 60 C49 26.8818 75.8818 0 109 0 L401 0 C632 0 734 62 734 204 C734 273.7 673.671 330.034 577.579 357.648 C567.722 360.481 565.004 381.569 574.601 385.184 L574.601 385.184 Z M153 457 L153 557 C153 590.118 179.882 617 213 617 L365 617 C519 617 586 583 586 506 C586 443 484 397 344 397 L213 397 C179.882 397 153 423.882 153 457 L153 457 Z M371 80 L212 80 C178.882 80 152 106.882 152 140 L152 259 C152 292.118 178.882 319 212 319 L359 319 C511 319 621 275 621 214 C621 121 545.5 80 371.5 80 L371 80 Z " />
<glyph glyph-name="C" unicode="C" horiz-adv-x="847" d="M700.341 176.271 C651.652 117.46 550.8 77 442 77 C279 77 162 207 162 350 C162 493 279 623 442 623 C556.075 623 670.15 569.765 717.491 496.662 C719.871 492.987 723.41 492.85 726.85 495.557 C737.9 504.255 748.95 513.35 760 521 C760.157 521.109 762.297 522.987 762.442 523.112 L778.5 537 C790.165 547.089 793.293 560.347 783.91 572.587 C723.616 651.24 585.375 706 442 706 C215 706 50 535 50 349 C50 163 215 -8 442 -8 C583.1 -8 711.917 38.24 771.953 106.769 C794.203 132.167 788.18 152.427 762.353 174.176 L752.843 182.185 C739.487 193.432 711.475 189.721 700.341 176.271 L700.341 176.271 Z " />
<glyph glyph-name="&amp;#xc7;" unicode="&#xc7;" horiz-adv-x="847" d="M700.341 176.271 C651.652 117.46 550.8 77 442 77 C279 77 162 207 162 350 C162 493 279 623 442 623 C556.075 623 670.15 569.765 717.491 496.662 C719.871 492.987 723.41 492.85 726.85 495.557 C737.9 504.255 748.95 513.35 760 521 C760.157 521.109 762.297 522.987 762.442 523.112 L778.5 537 C790.165 547.089 793.293 560.347 783.91 572.587 C723.616 651.24 585.375 706 442 706 C215 706 50 535 50 349 C50 163 215 -8 442 -8 C583.1 -8 711.917 38.24 771.953 106.769 C794.203 132.167 788.18 152.427 762.353 174.176 L752.843 182.185 C739.487 193.432 711.475 189.721 700.341 176.271 L700.341 176.271 Z " />
<glyph glyph-name="D" unicode="D" horiz-adv-x="829" d="M110.086 0 L367 0 C637 0 779 120 779 349 C779 572 620 699 340 699 L110.914 699 C77.8434 699 50.9616 672.157 50.9143 639.086 L50.086 60.0858 C50.0385 26.9203 76.9203 0 110.086 0 L110.086 0 Z M155 111 L155 558 C155 591.118 181.882 618 215 618 L344 618 C550 618 667 521 667 350 C667 174 562 81 361 81 C310 81 239.854 81.3612 183.11 81.4696 C166.582 81.5012 155 94.4725 155 111 L155 111 Z " />
<glyph glyph-name="E" unicode="E" horiz-adv-x="706" d="M656 42.5 C656 65.9587 636.959 85 613.5 85 L215 85 C181.882 85 155 111.882 155 145 L155 241 C155 274.118 181.882 301 215 301 L583.5 301 C605.855 301 624 319.145 624 341.5 C624 363.855 605.855 382 583.5 382 L215 382 C181.882 382 155 408.882 155 442 L155 554 C155 587.118 181.882 614 215 614 L599.5 614 C622.959 614 642 633.041 642 656.5 C642 679.959 622.959 699 599.5 699 L110 699 C76.8818 699 50 672.118 50 639 L50 60 C50 26.8818 76.8818 0 110 0 L613.5 0 C636.959 0 656 19.0413 656 42.5 L656 42.5 Z " />
<glyph glyph-name="&amp;#xc8;" unicode="&#xc8;" horiz-adv-x="706" d="M656 42.5 C656 65.9587 636.959 85 613.5 85 L215 85 C181.882 85 155 111.882 155 145 L155 241 C155 274.118 181.882 301 215 301 L583.5 301 C605.855 301 624 319.145 624 341.5 C624 363.855 605.855 382 583.5 382 L215 382 C181.882 382 155 408.882 155 442 L155 554 C155 587.118 181.882 614 215 614 L599.5 614 C622.959 614 642 633.041 642 656.5 C642 679.959 622.959 699 599.5 699 L110 699 C76.8818 699 50 672.118 50 639 L50 60 C50 26.8818 76.8818 0 110 0 L613.5 0 C636.959 0 656 19.0413 656 42.5 L656 42.5 Z " />
<glyph glyph-name="&amp;#xc9;" unicode="&#xc9;" horiz-adv-x="706" d="M656 42.5 C656 65.9587 636.959 85 613.5 85 L215 85 C181.882 85 155 111.882 155 145 L155 241 C155 274.118 181.882 301 215 301 L583.5 301 C605.855 301 624 319.145 624 341.5 C624 363.855 605.855 382 583.5 382 L215 382 C181.882 382 155 408.882 155 442 L155 554 C155 587.118 181.882 614 215 614 L599.5 614 C622.959 614 642 633.041 642 656.5 C642 679.959 622.959 699 599.5 699 L110 699 C76.8818 699 50 672.118 50 639 L50 60 C50 26.8818 76.8818 0 110 0 L613.5 0 C636.959 0 656 19.0413 656 42.5 L656 42.5 Z " />
<glyph glyph-name="&amp;#xca;" unicode="&#xca;" horiz-adv-x="706" d="M656 42.5 C656 65.9587 636.959 85 613.5 85 L215 85 C181.882 85 155 111.882 155 145 L155 241 C155 274.118 181.882 301 215 301 L583.5 301 C605.855 301 624 319.145 624 341.5 C624 363.855 605.855 382 583.5 382 L215 382 C181.882 382 155 408.882 155 442 L155 554 C155 587.118 181.882 614 215 614 L599.5 614 C622.959 614 642 633.041 642 656.5 C642 679.959 622.959 699 599.5 699 L110 699 C76.8818 699 50 672.118 50 639 L50 60 C50 26.8818 76.8818 0 110 0 L613.5 0 C636.959 0 656 19.0413 656 42.5 L656 42.5 Z " />
<glyph glyph-name="&amp;#xcb;" unicode="&#xcb;" horiz-adv-x="706" d="M656 42.5 C656 65.9587 636.959 85 613.5 85 L215 85 C181.882 85 155 111.882 155 145 L155 241 C155 274.118 181.882 301 215 301 L583.5 301 C605.855 301 624 319.145 624 341.5 C624 363.855 605.855 382 583.5 382 L215 382 C181.882 382 155 408.882 155 442 L155 554 C155 587.118 181.882 614 215 614 L599.5 614 C622.959 614 642 633.041 642 656.5 C642 679.959 622.959 699 599.5 699 L110 699 C76.8818 699 50 672.118 50 639 L50 60 C50 26.8818 76.8818 0 110 0 L613.5 0 C636.959 0 656 19.0413 656 42.5 L656 42.5 Z " />
<glyph glyph-name="F" unicode="F" horiz-adv-x="692" d="M213.801 301 L572.5 301 C594.855 301 613 319.145 613 341.5 C613 363.855 594.855 382 572.5 382 L214 382 C180.882 382 154 408.882 154 442 L154 554 C154 587.118 180.882 614 214 614 L598.5 614 C621.959 614 641 633.041 641 656.5 C641 679.959 621.959 699 598.5 699 L109 699 C75.8818 699 49 672.118 49 639 L49 52 C49 23.2976 72.2976 0 101 0 C129.702 0 153.077 23.2976 153.173 51.9997 L153.801 241.199 C153.911 274.207 180.793 301 213.801 301 L213.801 301 Z " />
<glyph glyph-name="G" unicode="G" horiz-adv-x="877" d="M414 360.5 C414 337.041 433.041 318 456.5 318 L667 318 C700.118 318 727 291.118 727 258 L727 164.336 C727 147.853 719.149 130.025 704.765 121.976 C656.672 95.0625 575.2 77 480 77 C296 77 162 192 162 350 C162 508 296 623 480 623 C570.95 623 663.345 582.54 716.653 523.728 C730.01 508.992 759.687 506.49 774.999 519.183 L779 522.5 C805.564 544.52 811.924 567.17 788.208 592.231 C723.355 660.76 602.4 707 480 707 C230 707 49 557 49 349 C49 141 230 -9 480 -9 C615 -9 734.61 22.59 804.567 69.003 C816.907 77.1901 826 98.0189 826 112.828 L826 342.145 C826 375.183 799.183 402.065 766.146 402.145 L456.5 402.897 C433.041 402.954 414 383.959 414 360.5 L414 360.5 Z " />
<glyph glyph-name="H" unicode="H" horiz-adv-x="832" d="M782 52 L782 647 C782 675.702 758.702 699 730 699 C701.298 699 678 675.702 678 647 L678 449 C678 415.882 651.118 389 618 389 L214 389 C180.882 389 154 415.882 154 449 L154 647 C154 675.702 130.702 699 102 699 C73.2976 699 50 675.702 50 647 L50 52 C50 23.2976 73.2976 0 102 0 C130.702 0 154 23.2976 154 52 L154 244 C154 277.118 180.882 304 214 304 L618 304 C651.118 304 678 277.118 678 244 L678 52 C678 23.2976 701.298 0 730 0 C758.702 0 782 23.2976 782 52 L782 52 Z " />
<glyph glyph-name="I" unicode="I" horiz-adv-x="203" d="M153 51.5 L153 647.5 C153 675.926 129.926 699 101.5 699 C73.0735 699 50 675.926 50 647.5 L50 51.5 C50 23.0735 73.0735 0 101.5 0 C129.926 0 153 23.0735 153 51.5 L153 51.5 Z " />
<glyph glyph-name="&amp;#xcc;" unicode="&#xcc;" horiz-adv-x="203" d="M153 51.5 L153 647.5 C153 675.926 129.926 699 101.5 699 C73.0735 699 50 675.926 50 647.5 L50 51.5 C50 23.0735 73.0735 0 101.5 0 C129.926 0 153 23.0735 153 51.5 L153 51.5 Z " />
<glyph glyph-name="&amp;#xcd;" unicode="&#xcd;" horiz-adv-x="203" d="M153 51.5 L153 647.5 C153 675.926 129.926 699 101.5 699 C73.0735 699 50 675.926 50 647.5 L50 51.5 C50 23.0735 73.0735 0 101.5 0 C129.926 0 153 23.0735 153 51.5 L153 51.5 Z " />
<glyph glyph-name="&amp;#xce;" unicode="&#xce;" horiz-adv-x="203" d="M153 51.5 L153 647.5 C153 675.926 129.926 699 101.5 699 C73.0735 699 50 675.926 50 647.5 L50 51.5 C50 23.0735 73.0735 0 101.5 0 C129.926 0 153 23.0735 153 51.5 L153 51.5 Z " />
<glyph glyph-name="&amp;#xcf;" unicode="&#xcf;" horiz-adv-x="203" d="M153 51.5 L153 647.5 C153 675.926 129.926 699 101.5 699 C73.0735 699 50 675.926 50 647.5 L50 51.5 C50 23.0735 73.0735 0 101.5 0 C129.926 0 153 23.0735 153 51.5 L153 51.5 Z " />
<glyph glyph-name="J" unicode="J" horiz-adv-x="635" d="M50 231.5 L50 202 C50 61 139 -9 317 -9 C487 -9 584 80 584 204 L584 646 C584 674.702 560.702 698 532 698 C503.298 698 480 674.702 480 646 L480 204 C480 136 421 87 317 87 C208 87 153 135 153 231 L153.5 255 C153.771 268.003 143.162 277.124 130.346 274.906 L79.0678 266.031 C63.2583 263.295 50 247.545 50 231.5 L50 231.5 Z " />
<glyph glyph-name="K" unicode="K" horiz-adv-x="782" d="M706.095 699 L572.905 699 C571.525 699 567.06 697.383 566 696.5 L563 694 L252.555 433.651 C210.873 398.695 154 425.225 154 479.624 L154 647 C154 675.702 130.702 699 102 699 C73.2976 699 50 675.702 50 647 L50 52 C50 23.2976 73.2976 0 102 0 C130.702 0 154.093 23.2976 154.207 51.9996 L154.886 222.465 C154.935 234.683 167.699 261.247 177.207 268.92 L704 694 L707 696.5 C708.06 697.383 707.475 699 706.095 699 L706.095 699 Z M599.363 0 L729.172 0 C730.276 0 730.781 1.2194 730 2 C729.847 2.15256 726.426 6.08502 726.296 6.2572 L428.834 400.192 C410.172 424.907 375.494 429.081 351.5 409.5 C327.5 389.914 323.317 354.028 342.169 329.447 L591 5 L593.25 2.5 C594.173 1.47431 597.983 0 599.363 0 L599.363 0 Z " />
<glyph glyph-name="L" unicode="L" horiz-adv-x="658" d="M565.5 85 L213 85 C179.882 85 153 111.882 153 145 L153 647.5 C153 675.926 129.926 699 101.5 699 C73.0735 699 50 675.926 50 647.5 L50 60 C50 26.8818 76.8818 0 110 0 L565.5 0 C588.959 0 608 19.0413 608 42.5 C608 65.9587 588.959 85 565.5 85 L565.5 85 Z " />
<glyph glyph-name="M" unicode="M" horiz-adv-x="914" d="M864 49.5 L864 639 C864 672.118 837.118 699 804 699 L742.026 699 C721.627 699 694.462 680.878 686.628 662.044 L511.95 242.105 C490.316 190.095 423.222 189.901 401.287 241.786 L223.488 662.363 C215.614 680.99 188.446 699 168.224 699 L110 699 C76.8818 699 50 672.118 50 639 L50 50.5 C50 22.6255 72.6255 0 100.5 0 C128.374 0 151 22.6255 151 50.5 L151 316.685 C151 380.243 241.112 398.739 266.149 340.32 L396.415 36.3648 C404.322 17.9155 431.491 0 451.564 0 L464.158 0 C484.427 0 511.594 18.0397 519.458 36.7206 L649.7 346.108 C674.393 404.764 765 386.47 765 322.828 L765 49.5 C765 22.1775 787.177 0 814.5 0 C841.823 0 864 22.1775 864 49.5 L864 49.5 Z " />
<glyph glyph-name="N" unicode="N" horiz-adv-x="818" d="M558.369 225.729 L199.015 676.406 C191.241 686.157 164.574 699 152.103 699 L111 699 C77.8818 699 51 672.118 51 639 L51 52 C51 23.2976 74.2976 0 103 0 C131.702 0 155 23.2976 155 52 L155 396.835 C155 455.824 225.038 480.375 261.868 434.297 L590.985 22.5384 C598.752 12.8207 625.413 0 637.853 0 L709 0 C742.118 0 769 26.8818 769 60 L769 647.5 C769 675.926 745.926 699 717.5 699 C689.074 699 665.962 675.926 665.915 647.5 L665.282 263.036 C665.185 204.058 595.139 179.615 558.369 225.729 L558.369 225.729 Z " />
<glyph glyph-name="&amp;#xd1;" unicode="&#xd1;" horiz-adv-x="818" d="M558.369 225.729 L199.015 676.406 C191.241 686.157 164.574 699 152.103 699 L111 699 C77.8818 699 51 672.118 51 639 L51 52 C51 23.2976 74.2976 0 103 0 C131.702 0 155 23.2976 155 52 L155 396.835 C155 455.824 225.038 480.375 261.868 434.297 L590.985 22.5384 C598.752 12.8207 625.413 0 637.853 0 L709 0 C742.118 0 769 26.8818 769 60 L769 647.5 C769 675.926 745.926 699 717.5 699 C689.074 699 665.962 675.926 665.915 647.5 L665.282 263.036 C665.185 204.058 595.139 179.615 558.369 225.729 L558.369 225.729 Z " />
<glyph glyph-name="O" unicode="O" horiz-adv-x="902" d="M50 349 C50 141 219 -9 452 -9 C684 -9 853 141 853 349 C853 547 673 707 452 707 C231 707 50 547 50 349 L50 349 Z M162 349 C162 499 292 622 451 622 C610 622 740 499 740 349 C740 191 619 76 451 76 C283 76 161.5 191 161.5 349 L162 349 Z " />
<glyph glyph-name="&amp;#xd2;" unicode="&#xd2;" horiz-adv-x="902" d="M50 349 C50 141 219 -9 452 -9 C684 -9 853 141 853 349 C853 547 673 707 452 707 C231 707 50 547 50 349 L50 349 Z M162 349 C162 499 292 622 451 622 C610 622 740 499 740 349 C740 191 619 76 451 76 C283 76 161.5 191 161.5 349 L162 349 Z " />
<glyph glyph-name="&amp;#xd3;" unicode="&#xd3;" horiz-adv-x="902" d="M50 349 C50 141 219 -9 452 -9 C684 -9 853 141 853 349 C853 547 673 707 452 707 C231 707 50 547 50 349 L50 349 Z M162 349 C162 499 292 622 451 622 C610 622 740 499 740 349 C740 191 619 76 451 76 C283 76 161.5 191 161.5 349 L162 349 Z " />
<glyph glyph-name="&amp;#xd4;" unicode="&#xd4;" horiz-adv-x="902" d="M50 349 C50 141 219 -9 452 -9 C684 -9 853 141 853 349 C853 547 673 707 452 707 C231 707 50 547 50 349 L50 349 Z M162 349 C162 499 292 622 451 622 C610 622 740 499 740 349 C740 191 619 76 451 76 C283 76 161.5 191 161.5 349 L162 349 Z " />
<glyph glyph-name="&amp;#xd5;" unicode="&#xd5;" horiz-adv-x="902" d="M50 349 C50 141 219 -9 452 -9 C684 -9 853 141 853 349 C853 547 673 707 452 707 C231 707 50 547 50 349 L50 349 Z M162 349 C162 499 292 622 451 622 C610 622 740 499 740 349 C740 191 619 76 451 76 C283 76 161.5 191 161.5 349 L162 349 Z " />
<glyph glyph-name="&amp;#xd6;" unicode="&#xd6;" horiz-adv-x="902" d="M50 349 C50 141 219 -9 452 -9 C684 -9 853 141 853 349 C853 547 673 707 452 707 C231 707 50 547 50 349 L50 349 Z M162 349 C162 499 292 622 451 622 C610 622 740 499 740 349 C740 191 619 76 451 76 C283 76 161.5 191 161.5 349 L162 349 Z " />
<glyph glyph-name="&amp;#xd8;" unicode="&#xd8;" horiz-adv-x="902" d="M50 349 C50 141 219 -9 452 -9 C684 -9 853 141 853 349 C853 547 673 707 452 707 C231 707 50 547 50 349 L50 349 Z M162 349 C162 499 292 622 451 622 C610 622 740 499 740 349 C740 191 619 76 451 76 C283 76 161.5 191 161.5 349 L162 349 Z " />
<glyph glyph-name="P" unicode="P" horiz-adv-x="716" d="M102 0 C130.702 0 154 23.2976 154 52 L154 209 C154 242.118 180.882 269 214 269 L435 269 C582 269 665 348 665 489 C665 623 582 698 435 698 L109.086 698 C75.9204 698 49.0386 671.08 49.0861 637.914 L49.9255 51.9999 C49.9666 23.2976 73.2976 0 102 0 L102 0 Z M153 409 L153 557 C153 590.118 179.882 617 213 617 L430 617 C513 617 561 570 561 488 C561 399 517 349 440 349 L213 349 C179.882 349 153 375.882 153 409 L153 409 Z " />
<glyph glyph-name="Q" unicode="Q" horiz-adv-x="902" d="M51 350 C51 142 221 -8 454 -8 C497.725 -8 538.727 -3.23563 577.007 6.85464 C587.129 9.52267 610.438 4.70084 617.894 -2.64583 L706.77 -90.2148 C723.15 -106.354 753.035 -109.005 772 -96 C790.963 -82.9971 793.139 -58.3611 776.751 -42.2346 L725.458 8.23729 C705.425 27.9498 711.946 69.3124 733.316 87.5665 C807.759 151.154 852 242.75 852 350 C852 548 672 708 451 708 C230 708 49.5 548 49.5 350 L51 350 Z M163 349.5 C163 499.5 293 622 452 622 C611 622 741 499 741 349 C741 265.675 707.649 194.601 651.617 145.886 C628.723 125.981 601.885 128.981 580.304 150.302 L560.19 170.174 C543.827 186.34 513.97 189.008 495 176 C476.035 162.995 473.85 138.354 490.23 122.215 L519.189 93.6814 C523.429 89.5035 522.848 83.6998 517.022 82.4793 C496.401 78.1598 475.061 76 453 76 C285 76 163 191.5 163 349.5 L163 349.5 Z " />
<glyph glyph-name="R" unicode="R" horiz-adv-x="739" d="M688 2.5 C687.921 2.69823 685.758 7.14563 685.651 7.33041 L542.481 254.701 C531.591 273.517 544.265 303.686 563.876 313.069 C629.607 344.522 665 404.85 665 489 C665 623 582 698 435 698 L109 698 C75.8818 698 49 671.118 49 638 L49 51 C49 22.2976 72.2976 -1 101 -1 C129.702 -1 153 22.2976 153 51 L153 226 C153 259.118 179.882 286 213 286 L369.39 286 C385.927 286 413.049 270.355 421.328 256.041 L552.503 29.2508 C560.903 14.7271 588.168 -0.84733 604.945 -0.706343 L686.308 -0.0226259 C687.692 -0.0109918 688.514 1.21451 688 2.5 L688 2.5 Z M154 427 L154 557 C154 590.118 180.882 617 214 617 L431 617 C514 617 562 570 562 488 C562 410 517 366 439 366 C439 366 345.977 366.766 213.523 366.957 C180.453 367.005 154 393.93 154 427 L154 427 Z " />
<glyph glyph-name="S" unicode="S" horiz-adv-x="748" d="M637.963 616.218 C562.612 674.487 448.5 707 338 707 C172 707 52 624 52 508 C52 383 163 310 359 306 C510 303 596 261 596 190 C596 127 526 80 402 80 C297.6 80 201.3 118.88 154.653 188.621 C147.582 199.193 129.083 205.055 118.5 198 L96 183 L73.5 167 C59.279 156.887 53.8761 143.44 63.3702 128.798 C120.546 40.6263 254 -9 402 -9 C592 -9 700 77 700 195 C700 329 586 407 387 411 C242 414 160 453 160 519 C160 574 235 614 338 614 C424.7 614 513.568 588.712 572.668 543.05 C587.678 531.454 617.916 532.294 631.986 545.015 L637.5 550 C661.274 571.494 663.316 596.612 637.963 616.218 L637.963 616.218 Z " />
<glyph glyph-name="T" unicode="T" horiz-adv-x="788" d="M446 52 L446 554 C446 587.118 472.882 614 506 614 L695.5 614 C718.959 614 738 633.041 738 656.5 C738 679.959 718.959 699 695.5 699 L92.5 699 C69.0413 699 50 679.959 50 656.5 C50 633.041 69.0413 614 92.5 614 L282 614 C315.118 614 342 587.118 342 554 L342 52 C342 23.2976 365.298 0 394 0 C422.702 0 446 23.2976 446 52 L446 52 Z " />
<glyph glyph-name="U" unicode="U" horiz-adv-x="765" d="M50 270 C50 92 170 -9 382 -9 C594 -9 714 92 714 270 L714 647 C714 675.702 690.702 699 662 699 C633.298 699 610 675.702 610 647 L610 289 C610 160 527 87 382 87 C237 87 154 160 154 289 L154 647 C154 675.702 130.702 699 102 699 C73.2976 699 50 675.702 50 647 L50 270 L50 270 Z " />
<glyph glyph-name="&amp;#xd9;" unicode="&#xd9;" horiz-adv-x="765" d="M50 270 C50 92 170 -9 382 -9 C594 -9 714 92 714 270 L714 647 C714 675.702 690.702 699 662 699 C633.298 699 610 675.702 610 647 L610 289 C610 160 527 87 382 87 C237 87 154 160 154 289 L154 647 C154 675.702 130.702 699 102 699 C73.2976 699 50 675.702 50 647 L50 270 L50 270 Z " />
<glyph glyph-name="&amp;#xda;" unicode="&#xda;" horiz-adv-x="765" d="M50 270 C50 92 170 -9 382 -9 C594 -9 714 92 714 270 L714 647 C714 675.702 690.702 699 662 699 C633.298 699 610 675.702 610 647 L610 289 C610 160 527 87 382 87 C237 87 154 160 154 289 L154 647 C154 675.702 130.702 699 102 699 C73.2976 699 50 675.702 50 647 L50 270 L50 270 Z " />
<glyph glyph-name="&amp;#xdb;" unicode="&#xdb;" horiz-adv-x="765" d="M50 270 C50 92 170 -9 382 -9 C594 -9 714 92 714 270 L714 647 C714 675.702 690.702 699 662 699 C633.298 699 610 675.702 610 647 L610 289 C610 160 527 87 382 87 C237 87 154 160 154 289 L154 647 C154 675.702 130.702 699 102 699 C73.2976 699 50 675.702 50 647 L50 270 L50 270 Z " />
<glyph glyph-name="&amp;#xdc;" unicode="&#xdc;" horiz-adv-x="765" d="M50 270 C50 92 170 -9 382 -9 C594 -9 714 92 714 270 L714 647 C714 675.702 690.702 699 662 699 C633.298 699 610 675.702 610 647 L610 289 C610 160 527 87 382 87 C237 87 154 160 154 289 L154 647 C154 675.702 130.702 699 102 699 C73.2976 699 50 675.702 50 647 L50 270 L50 270 Z " />
<glyph glyph-name="V" unicode="V" horiz-adv-x="801" d="M52.0357 691.604 L335.355 36.1926 C343.282 17.8553 370.452 0 390.429 0 L412.361 0 C432.487 0 459.655 17.949 467.551 36.4609 L748 694 C749 694 751 699 751 699 C751 699 749.314 699 748.307 699 L679.429 699 C658.746 699 631.586 680.699 623.819 661.529 L457.26 250.402 C435.934 197.762 367.698 197.612 346.14 250.158 L177.272 661.773 C169.473 680.784 142.31 699 121.762 699 L52.6101 699 C51.2302 699 50.3535 697.822 50.75 696.5 C50.7981 696.34 51.9692 691.758 52.0357 691.604 L52.0357 691.604 Z " />
<glyph glyph-name="W" unicode="W" horiz-adv-x="977" d="M870.563 696.875 L861.914 696.894 C836.452 696.951 809.378 675.654 803.436 650.895 L742.142 395.46 C727.69 335.232 643.228 333.366 626.13 392.897 L550.847 655.011 C544.316 677.751 517.434 698.21 493.775 698.445 L483.87 698.544 C459.437 698.787 432.173 678.369 425.532 654.855 L351.722 393.53 C334.894 333.947 250.52 335.378 235.721 395.497 L172.896 650.707 C166.768 675.599 139.462 696.704 113.83 696.36 L105.625 696.25 C75.6887 695.848 56.3256 670.406 63.9147 641.445 L220.263 44.791 C226.53 20.8752 253.58 0 278.303 0 L288.212 0 C311.913 0 338.996 20.2166 345.735 42.9398 L430.729 329.521 C448.075 388.01 528.957 387.727 545.894 329.118 L628.475 43.3431 C635.117 20.3594 662.192 0 686.117 0 L694.98 0 C719.528 0 748.946 29.6136 755.299 53.3245 C809.289 254.833 862.956 456.984 916.965 658.454 C924.707 687.332 900.46 696.808 870.563 696.875 L870.563 696.875 Z " />
<glyph glyph-name="X" unicode="X" horiz-adv-x="804" d="M53.182 0.0122383 L151.839 0.39169 C163.796 0.437678 190.306 13.0044 197.91 22.2315 L364.858 224.799 C390.308 255.68 433.224 255.301 458.126 223.977 L631.186 6.2822 C631.317 6.11735 634.392 1.68059 634.5 1.5 C635.21 0.316724 637.536 -1 638.915 -1 L751.464 -1 C752.844 -1 753.476 0.524246 752.5 1.5 L752.379 1.6206 C752.233 1.76745 748.031 6.46818 747.902 6.63053 L500.373 316.926 C483.966 337.493 484.262 372.267 501.016 392.552 L750 694 L752 696.5 C752.859 697.574 752.174 698.993 750.798 698.988 L652.174 698.608 C640.208 698.562 613.696 685.989 606.089 676.751 L454.014 492.088 C428.621 461.254 385.766 461.568 360.828 492.771 L201.82 691.723 C201.686 691.89 198.61 696.316 198.5 696.5 C197.79 697.683 195.464 699 194.085 699 L81.5355 699 C80.1556 699 79.5242 697.476 80.5 696.5 L80.6346 696.365 C80.7797 696.22 84.9597 691.547 85.0878 691.386 L318.627 399.024 C335.031 378.487 334.772 343.723 318.063 323.434 L56.8413 6.23587 C56.7434 6.11699 53.0608 2.06079 52.9519 1.95189 L52.75 1.75 C51.8752 0.875205 51.9448 0.00748007 53.182 0.0122383 L53.182 0.0122383 Z " />
<glyph glyph-name="Y" unicode="Y" horiz-adv-x="810" d="M642 694 L450.66 446.619 C425.225 413.734 380.892 413.824 355.591 446.812 L167.774 691.687 C167.663 691.832 164.594 696.343 164.5 696.5 C163.79 697.683 161.464 699 160.085 699 L51.8284 699 C50.7245 699 50.2194 697.781 51 697 C51.1418 696.858 54.604 692.918 54.7265 692.76 L339.526 323.188 C343.728 317.734 352 293.449 352 286.564 L352 51.5 C352 23.0735 375.074 0 403.5 0 C431.926 0 455 23.0735 455 51.5 L455 286.431 C455 293.398 465.879 321.003 470.154 326.504 C553.518 433.793 637.188 541.388 720.604 648.729 C735.805 668.29 727.021 697.92 702.25 698.25 L649.051 698.959 C647.659 698.978 645.049 697.641 644.25 696.5 L642.5 694 L642 694 Z " />
<glyph glyph-name="&amp;#xdd;" unicode="&#xdd;" horiz-adv-x="810" d="M642 694 L450.66 446.619 C425.225 413.734 380.892 413.824 355.591 446.812 L167.774 691.687 C167.663 691.832 164.594 696.343 164.5 696.5 C163.79 697.683 161.464 699 160.085 699 L51.8284 699 C50.7245 699 50.2194 697.781 51 697 C51.1418 696.858 54.604 692.918 54.7265 692.76 L339.526 323.188 C343.728 317.734 352 293.449 352 286.564 L352 51.5 C352 23.0735 375.074 0 403.5 0 C431.926 0 455 23.0735 455 51.5 L455 286.431 C455 293.398 465.879 321.003 470.154 326.504 C553.518 433.793 637.188 541.388 720.604 648.729 C735.805 668.29 727.021 697.92 702.25 698.25 L649.051 698.959 C647.659 698.978 645.049 697.641 644.25 696.5 L642.5 694 L642 694 Z " />
<glyph glyph-name="Z" unicode="Z" horiz-adv-x="778" d="M685.5 85 L339.822 85 C283.176 85 257.353 147.759 297.595 187.625 L710.226 596.393 C717.196 603.297 728 629.208 728 639.018 L728 656.5 C728 679.959 708.959 699 685.5 699 L106.5 699 C83.0413 699 64 679.959 64 656.5 C64 633.041 83.0413 614 106.5 614 L437.372 614 C493.996 614 519.828 551.302 479.638 511.414 L67.7337 102.601 C60.7862 95.7052 50 69.8032 50 60.0147 L50 42.5 C50 19.0413 69.0413 0 92.5 0 L685.5 0 C708.959 0 728 19.0413 728 42.5 C728 65.9587 708.959 85 685.5 85 L685.5 85 Z " />
<glyph glyph-name="a" unicode="a" horiz-adv-x="908" d="M52.7042 0 L131.604 0 C150.136 0 177.309 16.9361 185.471 33.5731 L401.617 474.149 C425.218 522.255 486.309 522.025 509.548 473.743 L638.428 205.966 C638.447 205.926 638.519 205.96 638.5 206 C633.27 216.959 615.766 228 603.623 228 L320.304 228 C301.838 228 274.666 211.106 266.496 194.545 L264.5 190.5 C255.342 171.937 267.116 153 287.815 153 L627.264 153 C646.038 153 673.213 135.909 681.344 118.987 L722.656 33.0133 C730.787 16.0913 757.962 -1 776.736 -1 L855.307 -1 C856.687 -1 857.512 0.218772 857 1.5 L856 4 L534.427 664.272 C526.275 681.009 499.101 698 480.484 698 L404.693 698 C403.313 698 401.512 696.781 401 695.5 L400 693 L54.7149 6.41587 C54.6333 6.25354 52.1008 1.90118 52 1.75 C51.3111 0.71665 51.4622 0 52.7042 0 L52.7042 0 Z " />
<glyph glyph-name="&amp;#xe0;" unicode="&#xe0;" horiz-adv-x="908" d="M52.7042 0 L131.604 0 C150.136 0 177.309 16.9361 185.471 33.5731 L401.617 474.149 C425.218 522.255 486.309 522.025 509.548 473.743 L638.428 205.966 C638.447 205.926 638.519 205.96 638.5 206 C633.27 216.959 615.766 228 603.623 228 L320.304 228 C301.838 228 274.666 211.106 266.496 194.545 L264.5 190.5 C255.342 171.937 267.116 153 287.815 153 L627.264 153 C646.038 153 673.213 135.909 681.344 118.987 L722.656 33.0133 C730.787 16.0913 757.962 -1 776.736 -1 L855.307 -1 C856.687 -1 857.512 0.218772 857 1.5 L856 4 L534.427 664.272 C526.275 681.009 499.101 698 480.484 698 L404.693 698 C403.313 698 401.512 696.781 401 695.5 L400 693 L54.7149 6.41587 C54.6333 6.25354 52.1008 1.90118 52 1.75 C51.3111 0.71665 51.4622 0 52.7042 0 L52.7042 0 Z " />
<glyph glyph-name="&amp;#xe1;" unicode="&#xe1;" horiz-adv-x="908" d="M52.7042 0 L131.604 0 C150.136 0 177.309 16.9361 185.471 33.5731 L401.617 474.149 C425.218 522.255 486.309 522.025 509.548 473.743 L638.428 205.966 C638.447 205.926 638.519 205.96 638.5 206 C633.27 216.959 615.766 228 603.623 228 L320.304 228 C301.838 228 274.666 211.106 266.496 194.545 L264.5 190.5 C255.342 171.937 267.116 153 287.815 153 L627.264 153 C646.038 153 673.213 135.909 681.344 118.987 L722.656 33.0133 C730.787 16.0913 757.962 -1 776.736 -1 L855.307 -1 C856.687 -1 857.512 0.218772 857 1.5 L856 4 L534.427 664.272 C526.275 681.009 499.101 698 480.484 698 L404.693 698 C403.313 698 401.512 696.781 401 695.5 L400 693 L54.7149 6.41587 C54.6333 6.25354 52.1008 1.90118 52 1.75 C51.3111 0.71665 51.4622 0 52.7042 0 L52.7042 0 Z " />
<glyph glyph-name="&amp;#xe2;" unicode="&#xe2;" horiz-adv-x="908" d="M52.7042 0 L131.604 0 C150.136 0 177.309 16.9361 185.471 33.5731 L401.617 474.149 C425.218 522.255 486.309 522.025 509.548 473.743 L638.428 205.966 C638.447 205.926 638.519 205.96 638.5 206 C633.27 216.959 615.766 228 603.623 228 L320.304 228 C301.838 228 274.666 211.106 266.496 194.545 L264.5 190.5 C255.342 171.937 267.116 153 287.815 153 L627.264 153 C646.038 153 673.213 135.909 681.344 118.987 L722.656 33.0133 C730.787 16.0913 757.962 -1 776.736 -1 L855.307 -1 C856.687 -1 857.512 0.218772 857 1.5 L856 4 L534.427 664.272 C526.275 681.009 499.101 698 480.484 698 L404.693 698 C403.313 698 401.512 696.781 401 695.5 L400 693 L54.7149 6.41587 C54.6333 6.25354 52.1008 1.90118 52 1.75 C51.3111 0.71665 51.4622 0 52.7042 0 L52.7042 0 Z " />
<glyph glyph-name="&amp;#xe3;" unicode="&#xe3;" horiz-adv-x="908" d="M52.7042 0 L131.604 0 C150.136 0 177.309 16.9361 185.471 33.5731 L401.617 474.149 C425.218 522.255 486.309 522.025 509.548 473.743 L638.428 205.966 C638.447 205.926 638.519 205.96 638.5 206 C633.27 216.959 615.766 228 603.623 228 L320.304 228 C301.838 228 274.666 211.106 266.496 194.545 L264.5 190.5 C255.342 171.937 267.116 153 287.815 153 L627.264 153 C646.038 153 673.213 135.909 681.344 118.987 L722.656 33.0133 C730.787 16.0913 757.962 -1 776.736 -1 L855.307 -1 C856.687 -1 857.512 0.218772 857 1.5 L856 4 L534.427 664.272 C526.275 681.009 499.101 698 480.484 698 L404.693 698 C403.313 698 401.512 696.781 401 695.5 L400 693 L54.7149 6.41587 C54.6333 6.25354 52.1008 1.90118 52 1.75 C51.3111 0.71665 51.4622 0 52.7042 0 L52.7042 0 Z " />
<glyph glyph-name="&amp;#xe4;" unicode="&#xe4;" horiz-adv-x="908" d="M52.7042 0 L131.604 0 C150.136 0 177.309 16.9361 185.471 33.5731 L401.617 474.149 C425.218 522.255 486.309 522.025 509.548 473.743 L638.428 205.966 C638.447 205.926 638.519 205.96 638.5 206 C633.27 216.959 615.766 228 603.623 228 L320.304 228 C301.838 228 274.666 211.106 266.496 194.545 L264.5 190.5 C255.342 171.937 267.116 153 287.815 153 L627.264 153 C646.038 153 673.213 135.909 681.344 118.987 L722.656 33.0133 C730.787 16.0913 757.962 -1 776.736 -1 L855.307 -1 C856.687 -1 857.512 0.218772 857 1.5 L856 4 L534.427 664.272 C526.275 681.009 499.101 698 480.484 698 L404.693 698 C403.313 698 401.512 696.781 401 695.5 L400 693 L54.7149 6.41587 C54.6333 6.25354 52.1008 1.90118 52 1.75 C51.3111 0.71665 51.4622 0 52.7042 0 L52.7042 0 Z " />
<glyph glyph-name="&amp;#xe5;" unicode="&#xe5;" horiz-adv-x="908" d="M52.7042 0 L131.604 0 C150.136 0 177.309 16.9361 185.471 33.5731 L401.617 474.149 C425.218 522.255 486.309 522.025 509.548 473.743 L638.428 205.966 C638.447 205.926 638.519 205.96 638.5 206 C633.27 216.959 615.766 228 603.623 228 L320.304 228 C301.838 228 274.666 211.106 266.496 194.545 L264.5 190.5 C255.342 171.937 267.116 153 287.815 153 L627.264 153 C646.038 153 673.213 135.909 681.344 118.987 L722.656 33.0133 C730.787 16.0913 757.962 -1 776.736 -1 L855.307 -1 C856.687 -1 857.512 0.218772 857 1.5 L856 4 L534.427 664.272 C526.275 681.009 499.101 698 480.484 698 L404.693 698 C403.313 698 401.512 696.781 401 695.5 L400 693 L54.7149 6.41587 C54.6333 6.25354 52.1008 1.90118 52 1.75 C51.3111 0.71665 51.4622 0 52.7042 0 L52.7042 0 Z " />
<glyph glyph-name="b" unicode="b" horiz-adv-x="785" d="M574.601 385.184 C648.398 412.979 694 458.725 694 514 C694 643 592 699 361 699 L109 699 C75.8818 699 49 672.118 49 639 L49 60 C49 26.8818 75.8818 0 109 0 L401 0 C632 0 734 62 734 204 C734 273.7 673.671 330.034 577.579 357.648 C567.722 360.481 565.004 381.569 574.601 385.184 L574.601 385.184 Z M153 457 L153 557 C153 590.118 179.882 617 213 617 L365 617 C519 617 586 583 586 506 C586 443 484 397 344 397 L213 397 C179.882 397 153 423.882 153 457 L153 457 Z M371 80 L212 80 C178.882 80 152 106.882 152 140 L152 259 C152 292.118 178.882 319 212 319 L359 319 C511 319 621 275 621 214 C621 121 545.5 80 371.5 80 L371 80 Z " />
<glyph glyph-name="c" unicode="c" horiz-adv-x="847" d="M700.341 176.271 C651.652 117.46 550.8 77 442 77 C279 77 162 207 162 350 C162 493 279 623 442 623 C556.075 623 670.15 569.765 717.491 496.662 C719.871 492.987 723.41 492.85 726.85 495.557 C737.9 504.255 748.95 513.35 760 521 C760.157 521.109 762.297 522.987 762.442 523.112 L778.5 537 C790.165 547.089 793.293 560.347 783.91 572.587 C723.616 651.24 585.375 706 442 706 C215 706 50 535 50 349 C50 163 215 -8 442 -8 C583.1 -8 711.917 38.24 771.953 106.769 C794.203 132.167 788.18 152.427 762.353 174.176 L752.843 182.185 C739.487 193.432 711.475 189.721 700.341 176.271 L700.341 176.271 Z " />
<glyph glyph-name="&amp;#xe7;" unicode="&#xe7;" horiz-adv-x="847" d="M700.341 176.271 C651.652 117.46 550.8 77 442 77 C279 77 162 207 162 350 C162 493 279 623 442 623 C556.075 623 670.15 569.765 717.491 496.662 C719.871 492.987 723.41 492.85 726.85 495.557 C737.9 504.255 748.95 513.35 760 521 C760.157 521.109 762.297 522.987 762.442 523.112 L778.5 537 C790.165 547.089 793.293 560.347 783.91 572.587 C723.616 651.24 585.375 706 442 706 C215 706 50 535 50 349 C50 163 215 -8 442 -8 C583.1 -8 711.917 38.24 771.953 106.769 C794.203 132.167 788.18 152.427 762.353 174.176 L752.843 182.185 C739.487 193.432 711.475 189.721 700.341 176.271 L700.341 176.271 Z " />
<glyph glyph-name="d" unicode="d" horiz-adv-x="829" d="M110.086 0 L367 0 C637 0 779 120 779 349 C779 572 620 699 340 699 L110.914 699 C77.8434 699 50.9616 672.157 50.9143 639.086 L50.086 60.0858 C50.0385 26.9203 76.9203 0 110.086 0 L110.086 0 Z M155 111 L155 558 C155 591.118 181.882 618 215 618 L344 618 C550 618 667 521 667 350 C667 174 562 81 361 81 C310 81 239.854 81.3612 183.11 81.4696 C166.582 81.5012 155 94.4725 155 111 L155 111 Z " />
<glyph glyph-name="e" unicode="e" horiz-adv-x="706" d="M656 42.5 C656 65.9587 636.959 85 613.5 85 L215 85 C181.882 85 155 111.882 155 145 L155 241 C155 274.118 181.882 301 215 301 L583.5 301 C605.855 301 624 319.145 624 341.5 C624 363.855 605.855 382 583.5 382 L215 382 C181.882 382 155 408.882 155 442 L155 554 C155 587.118 181.882 614 215 614 L599.5 614 C622.959 614 642 633.041 642 656.5 C642 679.959 622.959 699 599.5 699 L110 699 C76.8818 699 50 672.118 50 639 L50 60 C50 26.8818 76.8818 0 110 0 L613.5 0 C636.959 0 656 19.0413 656 42.5 L656 42.5 Z " />
<glyph glyph-name="&amp;#xe8;" unicode="&#xe8;" horiz-adv-x="706" d="M656 42.5 C656 65.9587 636.959 85 613.5 85 L215 85 C181.882 85 155 111.882 155 145 L155 241 C155 274.118 181.882 301 215 301 L583.5 301 C605.855 301 624 319.145 624 341.5 C624 363.855 605.855 382 583.5 382 L215 382 C181.882 382 155 408.882 155 442 L155 554 C155 587.118 181.882 614 215 614 L599.5 614 C622.959 614 642 633.041 642 656.5 C642 679.959 622.959 699 599.5 699 L110 699 C76.8818 699 50 672.118 50 639 L50 60 C50 26.8818 76.8818 0 110 0 L613.5 0 C636.959 0 656 19.0413 656 42.5 L656 42.5 Z " />
<glyph glyph-name="&amp;#xe9;" unicode="&#xe9;" horiz-adv-x="706" d="M656 42.5 C656 65.9587 636.959 85 613.5 85 L215 85 C181.882 85 155 111.882 155 145 L155 241 C155 274.118 181.882 301 215 301 L583.5 301 C605.855 301 624 319.145 624 341.5 C624 363.855 605.855 382 583.5 382 L215 382 C181.882 382 155 408.882 155 442 L155 554 C155 587.118 181.882 614 215 614 L599.5 614 C622.959 614 642 633.041 642 656.5 C642 679.959 622.959 699 599.5 699 L110 699 C76.8818 699 50 672.118 50 639 L50 60 C50 26.8818 76.8818 0 110 0 L613.5 0 C636.959 0 656 19.0413 656 42.5 L656 42.5 Z " />
<glyph glyph-name="&amp;#xea;" unicode="&#xea;" horiz-adv-x="706" d="M656 42.5 C656 65.9587 636.959 85 613.5 85 L215 85 C181.882 85 155 111.882 155 145 L155 241 C155 274.118 181.882 301 215 301 L583.5 301 C605.855 301 624 319.145 624 341.5 C624 363.855 605.855 382 583.5 382 L215 382 C181.882 382 155 408.882 155 442 L155 554 C155 587.118 181.882 614 215 614 L599.5 614 C622.959 614 642 633.041 642 656.5 C642 679.959 622.959 699 599.5 699 L110 699 C76.8818 699 50 672.118 50 639 L50 60 C50 26.8818 76.8818 0 110 0 L613.5 0 C636.959 0 656 19.0413 656 42.5 L656 42.5 Z " />
<glyph glyph-name="&amp;#xeb;" unicode="&#xeb;" horiz-adv-x="706" d="M656 42.5 C656 65.9587 636.959 85 613.5 85 L215 85 C181.882 85 155 111.882 155 145 L155 241 C155 274.118 181.882 301 215 301 L583.5 301 C605.855 301 624 319.145 624 341.5 C624 363.855 605.855 382 583.5 382 L215 382 C181.882 382 155 408.882 155 442 L155 554 C155 587.118 181.882 614 215 614 L599.5 614 C622.959 614 642 633.041 642 656.5 C642 679.959 622.959 699 599.5 699 L110 699 C76.8818 699 50 672.118 50 639 L50 60 C50 26.8818 76.8818 0 110 0 L613.5 0 C636.959 0 656 19.0413 656 42.5 L656 42.5 Z " />
<glyph glyph-name="f" unicode="f" horiz-adv-x="692" d="M213.801 301 L572.5 301 C594.855 301 613 319.145 613 341.5 C613 363.855 594.855 382 572.5 382 L214 382 C180.882 382 154 408.882 154 442 L154 554 C154 587.118 180.882 614 214 614 L598.5 614 C621.959 614 641 633.041 641 656.5 C641 679.959 621.959 699 598.5 699 L109 699 C75.8818 699 49 672.118 49 639 L49 52 C49 23.2976 72.2976 0 101 0 C129.702 0 153.077 23.2976 153.173 51.9997 L153.801 241.199 C153.911 274.207 180.793 301 213.801 301 L213.801 301 Z " />
<glyph glyph-name="g" unicode="g" horiz-adv-x="877" d="M414 360.5 C414 337.041 433.041 318 456.5 318 L667 318 C700.118 318 727 291.118 727 258 L727 164.336 C727 147.853 719.149 130.025 704.765 121.976 C656.672 95.0625 575.2 77 480 77 C296 77 162 192 162 350 C162 508 296 623 480 623 C570.95 623 663.345 582.54 716.653 523.728 C730.01 508.992 759.687 506.49 774.999 519.183 L779 522.5 C805.564 544.52 811.924 567.17 788.208 592.231 C723.355 660.76 602.4 707 480 707 C230 707 49 557 49 349 C49 141 230 -9 480 -9 C615 -9 734.61 22.59 804.567 69.003 C816.907 77.1901 826 98.0189 826 112.828 L826 342.145 C826 375.183 799.183 402.065 766.146 402.145 L456.5 402.897 C433.041 402.954 414 383.959 414 360.5 L414 360.5 Z " />
<glyph glyph-name="h" unicode="h" horiz-adv-x="832" d="M782 52 L782 647 C782 675.702 758.702 699 730 699 C701.298 699 678 675.702 678 647 L678 449 C678 415.882 651.118 389 618 389 L214 389 C180.882 389 154 415.882 154 449 L154 647 C154 675.702 130.702 699 102 699 C73.2976 699 50 675.702 50 647 L50 52 C50 23.2976 73.2976 0 102 0 C130.702 0 154 23.2976 154 52 L154 244 C154 277.118 180.882 304 214 304 L618 304 C651.118 304 678 277.118 678 244 L678 52 C678 23.2976 701.298 0 730 0 C758.702 0 782 23.2976 782 52 L782 52 Z " />
<glyph glyph-name="i" unicode="i" horiz-adv-x="203" d="M153 51.5 L153 647.5 C153 675.926 129.926 699 101.5 699 C73.0735 699 50 675.926 50 647.5 L50 51.5 C50 23.0735 73.0735 0 101.5 0 C129.926 0 153 23.0735 153 51.5 L153 51.5 Z " />
<glyph glyph-name="&amp;#xec;" unicode="&#xec;" horiz-adv-x="203" d="M153 51.5 L153 647.5 C153 675.926 129.926 699 101.5 699 C73.0735 699 50 675.926 50 647.5 L50 51.5 C50 23.0735 73.0735 0 101.5 0 C129.926 0 153 23.0735 153 51.5 L153 51.5 Z " />
<glyph glyph-name="&amp;#xed;" unicode="&#xed;" horiz-adv-x="203" d="M153 51.5 L153 647.5 C153 675.926 129.926 699 101.5 699 C73.0735 699 50 675.926 50 647.5 L50 51.5 C50 23.0735 73.0735 0 101.5 0 C129.926 0 153 23.0735 153 51.5 L153 51.5 Z " />
<glyph glyph-name="&amp;#xee;" unicode="&#xee;" horiz-adv-x="203" d="M153 51.5 L153 647.5 C153 675.926 129.926 699 101.5 699 C73.0735 699 50 675.926 50 647.5 L50 51.5 C50 23.0735 73.0735 0 101.5 0 C129.926 0 153 23.0735 153 51.5 L153 51.5 Z " />
<glyph glyph-name="&amp;#xef;" unicode="&#xef;" horiz-adv-x="203" d="M153 51.5 L153 647.5 C153 675.926 129.926 699 101.5 699 C73.0735 699 50 675.926 50 647.5 L50 51.5 C50 23.0735 73.0735 0 101.5 0 C129.926 0 153 23.0735 153 51.5 L153 51.5 Z " />
<glyph glyph-name="j" unicode="j" horiz-adv-x="635" d="M50 231.5 L50 202 C50 61 139 -9 317 -9 C487 -9 584 80 584 204 L584 646 C584 674.702 560.702 698 532 698 C503.298 698 480 674.702 480 646 L480 204 C480 136 421 87 317 87 C208 87 153 135 153 231 L153.5 255 C153.771 268.003 143.162 277.124 130.346 274.906 L79.0678 266.031 C63.2583 263.295 50 247.545 50 231.5 L50 231.5 Z " />
<glyph glyph-name="k" unicode="k" horiz-adv-x="782" d="M706.095 699 L572.905 699 C571.525 699 567.06 697.383 566 696.5 L563 694 L252.555 433.651 C210.873 398.695 154 425.225 154 479.624 L154 647 C154 675.702 130.702 699 102 699 C73.2976 699 50 675.702 50 647 L50 52 C50 23.2976 73.2976 0 102 0 C130.702 0 154.093 23.2976 154.207 51.9996 L154.886 222.465 C154.935 234.683 167.699 261.247 177.207 268.92 L704 694 L707 696.5 C708.06 697.383 707.475 699 706.095 699 L706.095 699 Z M599.363 0 L729.172 0 C730.276 0 730.781 1.2194 730 2 C729.847 2.15256 726.426 6.08502 726.296 6.2572 L428.834 400.192 C410.172 424.907 375.494 429.081 351.5 409.5 C327.5 389.914 323.317 354.028 342.169 329.447 L591 5 L593.25 2.5 C594.173 1.47431 597.983 0 599.363 0 L599.363 0 Z " />
<glyph glyph-name="l" unicode="l" horiz-adv-x="658" d="M565.5 85 L213 85 C179.882 85 153 111.882 153 145 L153 647.5 C153 675.926 129.926 699 101.5 699 C73.0735 699 50 675.926 50 647.5 L50 60 C50 26.8818 76.8818 0 110 0 L565.5 0 C588.959 0 608 19.0413 608 42.5 C608 65.9587 588.959 85 565.5 85 L565.5 85 Z " />
<glyph glyph-name="m" unicode="m" horiz-adv-x="914" d="M864 49.5 L864 639 C864 672.118 837.118 699 804 699 L742.026 699 C721.627 699 694.462 680.878 686.628 662.044 L511.95 242.105 C490.316 190.095 423.222 189.901 401.287 241.786 L223.488 662.363 C215.614 680.99 188.446 699 168.224 699 L110 699 C76.8818 699 50 672.118 50 639 L50 50.5 C50 22.6255 72.6255 0 100.5 0 C128.374 0 151 22.6255 151 50.5 L151 316.685 C151 380.243 241.112 398.739 266.149 340.32 L396.415 36.3648 C404.322 17.9155 431.491 0 451.564 0 L464.158 0 C484.427 0 511.594 18.0397 519.458 36.7206 L649.7 346.108 C674.393 404.764 765 386.47 765 322.828 L765 49.5 C765 22.1775 787.177 0 814.5 0 C841.823 0 864 22.1775 864 49.5 L864 49.5 Z " />
<glyph glyph-name="n" unicode="n" horiz-adv-x="818" d="M558.369 225.729 L199.015 676.406 C191.241 686.157 164.574 699 152.103 699 L111 699 C77.8818 699 51 672.118 51 639 L51 52 C51 23.2976 74.2976 0 103 0 C131.702 0 155 23.2976 155 52 L155 396.835 C155 455.824 225.038 480.375 261.868 434.297 L590.985 22.5384 C598.752 12.8207 625.413 0 637.853 0 L709 0 C742.118 0 769 26.8818 769 60 L769 647.5 C769 675.926 745.926 699 717.5 699 C689.074 699 665.962 675.926 665.915 647.5 L665.282 263.036 C665.185 204.058 595.139 179.615 558.369 225.729 L558.369 225.729 Z " />
<glyph glyph-name="&amp;#xf1;" unicode="&#xf1;" horiz-adv-x="818" d="M558.369 225.729 L199.015 676.406 C191.241 686.157 164.574 699 152.103 699 L111 699 C77.8818 699 51 672.118 51 639 L51 52 C51 23.2976 74.2976 0 103 0 C131.702 0 155 23.2976 155 52 L155 396.835 C155 455.824 225.038 480.375 261.868 434.297 L590.985 22.5384 C598.752 12.8207 625.413 0 637.853 0 L709 0 C742.118 0 769 26.8818 769 60 L769 647.5 C769 675.926 745.926 699 717.5 699 C689.074 699 665.962 675.926 665.915 647.5 L665.282 263.036 C665.185 204.058 595.139 179.615 558.369 225.729 L558.369 225.729 Z " />
<glyph glyph-name="o" unicode="o" horiz-adv-x="902" d="M50 349 C50 141 219 -9 452 -9 C684 -9 853 141 853 349 C853 547 673 707 452 707 C231 707 50 547 50 349 L50 349 Z M162 349 C162 499 292 622 451 622 C610 622 740 499 740 349 C740 191 619 76 451 76 C283 76 161.5 191 161.5 349 L162 349 Z " />
<glyph glyph-name="&amp;#xf2;" unicode="&#xf2;" horiz-adv-x="902" d="M50 349 C50 141 219 -9 452 -9 C684 -9 853 141 853 349 C853 547 673 707 452 707 C231 707 50 547 50 349 L50 349 Z M162 349 C162 499 292 622 451 622 C610 622 740 499 740 349 C740 191 619 76 451 76 C283 76 161.5 191 161.5 349 L162 349 Z " />
<glyph glyph-name="&amp;#xf3;" unicode="&#xf3;" horiz-adv-x="902" d="M50 349 C50 141 219 -9 452 -9 C684 -9 853 141 853 349 C853 547 673 707 452 707 C231 707 50 547 50 349 L50 349 Z M162 349 C162 499 292 622 451 622 C610 622 740 499 740 349 C740 191 619 76 451 76 C283 76 161.5 191 161.5 349 L162 349 Z " />
<glyph glyph-name="&amp;#xf4;" unicode="&#xf4;" horiz-adv-x="902" d="M50 349 C50 141 219 -9 452 -9 C684 -9 853 141 853 349 C853 547 673 707 452 707 C231 707 50 547 50 349 L50 349 Z M162 349 C162 499 292 622 451 622 C610 622 740 499 740 349 C740 191 619 76 451 76 C283 76 161.5 191 161.5 349 L162 349 Z " />
<glyph glyph-name="&amp;#xf5;" unicode="&#xf5;" horiz-adv-x="902" d="M50 349 C50 141 219 -9 452 -9 C684 -9 853 141 853 349 C853 547 673 707 452 707 C231 707 50 547 50 349 L50 349 Z M162 349 C162 499 292 622 451 622 C610 622 740 499 740 349 C740 191 619 76 451 76 C283 76 161.5 191 161.5 349 L162 349 Z " />
<glyph glyph-name="&amp;#xf6;" unicode="&#xf6;" horiz-adv-x="902" d="M50 349 C50 141 219 -9 452 -9 C684 -9 853 141 853 349 C853 547 673 707 452 707 C231 707 50 547 50 349 L50 349 Z M162 349 C162 499 292 622 451 622 C610 622 740 499 740 349 C740 191 619 76 451 76 C283 76 161.5 191 161.5 349 L162 349 Z " />
<glyph glyph-name="&amp;#xf8;" unicode="&#xf8;" horiz-adv-x="902" d="M50 349 C50 141 219 -9 452 -9 C684 -9 853 141 853 349 C853 547 673 707 452 707 C231 707 50 547 50 349 L50 349 Z M162 349 C162 499 292 622 451 622 C610 622 740 499 740 349 C740 191 619 76 451 76 C283 76 161.5 191 161.5 349 L162 349 Z " />
<glyph glyph-name="p" unicode="p" horiz-adv-x="716" d="M102 0 C130.702 0 154 23.2976 154 52 L154 209 C154 242.118 180.882 269 214 269 L435 269 C582 269 665 348 665 489 C665 623 582 698 435 698 L109.086 698 C75.9204 698 49.0386 671.08 49.0861 637.914 L49.9255 51.9999 C49.9666 23.2976 73.2976 0 102 0 L102 0 Z M153 409 L153 557 C153 590.118 179.882 617 213 617 L430 617 C513 617 561 570 561 488 C561 399 517 349 440 349 L213 349 C179.882 349 153 375.882 153 409 L153 409 Z " />
<glyph glyph-name="q" unicode="q" horiz-adv-x="902" d="M51 350 C51 142 221 -8 454 -8 C497.725 -8 538.727 -3.23563 577.007 6.85464 C587.129 9.52267 610.438 4.70084 617.894 -2.64583 L706.77 -90.2148 C723.15 -106.354 753.035 -109.005 772 -96 C790.963 -82.9971 793.139 -58.3611 776.751 -42.2346 L725.458 8.23729 C705.425 27.9498 711.946 69.3124 733.316 87.5665 C807.759 151.154 852 242.75 852 350 C852 548 672 708 451 708 C230 708 49.5 548 49.5 350 L51 350 Z M163 349.5 C163 499.5 293 622 452 622 C611 622 741 499 741 349 C741 265.675 707.649 194.601 651.617 145.886 C628.723 125.981 601.885 128.981 580.304 150.302 L560.19 170.174 C543.827 186.34 513.97 189.008 495 176 C476.035 162.995 473.85 138.354 490.23 122.215 L519.189 93.6814 C523.429 89.5035 522.848 83.6998 517.022 82.4793 C496.401 78.1598 475.061 76 453 76 C285 76 163 191.5 163 349.5 L163 349.5 Z " />
<glyph glyph-name="r" unicode="r" horiz-adv-x="739" d="M688 2.5 C687.921 2.69823 685.758 7.14563 685.651 7.33041 L542.481 254.701 C531.591 273.517 544.265 303.686 563.876 313.069 C629.607 344.522 665 404.85 665 489 C665 623 582 698 435 698 L109 698 C75.8818 698 49 671.118 49 638 L49 51 C49 22.2976 72.2976 -1 101 -1 C129.702 -1 153 22.2976 153 51 L153 226 C153 259.118 179.882 286 213 286 L369.39 286 C385.927 286 413.049 270.355 421.328 256.041 L552.503 29.2508 C560.903 14.7271 588.168 -0.84733 604.945 -0.706343 L686.308 -0.0226259 C687.692 -0.0109918 688.514 1.21451 688 2.5 L688 2.5 Z M154 427 L154 557 C154 590.118 180.882 617 214 617 L431 617 C514 617 562 570 562 488 C562 410 517 366 439 366 C439 366 345.977 366.766 213.523 366.957 C180.453 367.005 154 393.93 154 427 L154 427 Z " />
<glyph glyph-name="s" unicode="s" horiz-adv-x="748" d="M637.963 616.218 C562.612 674.487 448.5 707 338 707 C172 707 52 624 52 508 C52 383 163 310 359 306 C510 303 596 261 596 190 C596 127 526 80 402 80 C297.6 80 201.3 118.88 154.653 188.621 C147.582 199.193 129.083 205.055 118.5 198 L96 183 L73.5 167 C59.279 156.887 53.8761 143.44 63.3702 128.798 C120.546 40.6263 254 -9 402 -9 C592 -9 700 77 700 195 C700 329 586 407 387 411 C242 414 160 453 160 519 C160 574 235 614 338 614 C424.7 614 513.568 588.712 572.668 543.05 C587.678 531.454 617.916 532.294 631.986 545.015 L637.5 550 C661.274 571.494 663.316 596.612 637.963 616.218 L637.963 616.218 Z " />
<glyph glyph-name="&amp;#xdf;" unicode="&#xdf;" horiz-adv-x="748" d="M637.963 616.218 C562.612 674.487 448.5 707 338 707 C172 707 52 624 52 508 C52 383 163 310 359 306 C510 303 596 261 596 190 C596 127 526 80 402 80 C297.6 80 201.3 118.88 154.653 188.621 C147.582 199.193 129.083 205.055 118.5 198 L96 183 L73.5 167 C59.279 156.887 53.8761 143.44 63.3702 128.798 C120.546 40.6263 254 -9 402 -9 C592 -9 700 77 700 195 C700 329 586 407 387 411 C242 414 160 453 160 519 C160 574 235 614 338 614 C424.7 614 513.568 588.712 572.668 543.05 C587.678 531.454 617.916 532.294 631.986 545.015 L637.5 550 C661.274 571.494 663.316 596.612 637.963 616.218 L637.963 616.218 Z " />
<glyph glyph-name="t" unicode="t" horiz-adv-x="788" d="M446 52 L446 554 C446 587.118 472.882 614 506 614 L695.5 614 C718.959 614 738 633.041 738 656.5 C738 679.959 718.959 699 695.5 699 L92.5 699 C69.0413 699 50 679.959 50 656.5 C50 633.041 69.0413 614 92.5 614 L282 614 C315.118 614 342 587.118 342 554 L342 52 C342 23.2976 365.298 0 394 0 C422.702 0 446 23.2976 446 52 L446 52 Z " />
<glyph glyph-name="u" unicode="u" horiz-adv-x="765" d="M50 270 C50 92 170 -9 382 -9 C594 -9 714 92 714 270 L714 647 C714 675.702 690.702 699 662 699 C633.298 699 610 675.702 610 647 L610 289 C610 160 527 87 382 87 C237 87 154 160 154 289 L154 647 C154 675.702 130.702 699 102 699 C73.2976 699 50 675.702 50 647 L50 270 L50 270 Z " />
<glyph glyph-name="&amp;#xf9;" unicode="&#xf9;" horiz-adv-x="765" d="M50 270 C50 92 170 -9 382 -9 C594 -9 714 92 714 270 L714 647 C714 675.702 690.702 699 662 699 C633.298 699 610 675.702 610 647 L610 289 C610 160 527 87 382 87 C237 87 154 160 154 289 L154 647 C154 675.702 130.702 699 102 699 C73.2976 699 50 675.702 50 647 L50 270 L50 270 Z " />
<glyph glyph-name="&amp;#xfa;" unicode="&#xfa;" horiz-adv-x="765" d="M50 270 C50 92 170 -9 382 -9 C594 -9 714 92 714 270 L714 647 C714 675.702 690.702 699 662 699 C633.298 699 610 675.702 610 647 L610 289 C610 160 527 87 382 87 C237 87 154 160 154 289 L154 647 C154 675.702 130.702 699 102 699 C73.2976 699 50 675.702 50 647 L50 270 L50 270 Z " />
<glyph glyph-name="&amp;#xfb;" unicode="&#xfb;" horiz-adv-x="765" d="M50 270 C50 92 170 -9 382 -9 C594 -9 714 92 714 270 L714 647 C714 675.702 690.702 699 662 699 C633.298 699 610 675.702 610 647 L610 289 C610 160 527 87 382 87 C237 87 154 160 154 289 L154 647 C154 675.702 130.702 699 102 699 C73.2976 699 50 675.702 50 647 L50 270 L50 270 Z " />
<glyph glyph-name="&amp;#xfc;" unicode="&#xfc;" horiz-adv-x="765" d="M50 270 C50 92 170 -9 382 -9 C594 -9 714 92 714 270 L714 647 C714 675.702 690.702 699 662 699 C633.298 699 610 675.702 610 647 L610 289 C610 160 527 87 382 87 C237 87 154 160 154 289 L154 647 C154 675.702 130.702 699 102 699 C73.2976 699 50 675.702 50 647 L50 270 L50 270 Z " />
<glyph glyph-name="v" unicode="v" horiz-adv-x="801" d="M52.0357 691.604 L335.355 36.1926 C343.282 17.8553 370.452 0 390.429 0 L412.361 0 C432.487 0 459.655 17.949 467.551 36.4609 L748 694 C749 694 751 699 751 699 C751 699 749.314 699 748.307 699 L679.429 699 C658.746 699 631.586 680.699 623.819 661.529 L457.26 250.402 C435.934 197.762 367.698 197.612 346.14 250.158 L177.272 661.773 C169.473 680.784 142.31 699 121.762 699 L52.6101 699 C51.2302 699 50.3535 697.822 50.75 696.5 C50.7981 696.34 51.9692 691.758 52.0357 691.604 L52.0357 691.604 Z " />
<glyph glyph-name="w" unicode="w" horiz-adv-x="977" d="M870.563 696.875 L861.914 696.894 C836.452 696.951 809.378 675.654 803.436 650.895 L742.142 395.46 C727.69 335.232 643.228 333.366 626.13 392.897 L550.847 655.011 C544.316 677.751 517.434 698.21 493.775 698.445 L483.87 698.544 C459.437 698.787 432.173 678.369 425.532 654.855 L351.722 393.53 C334.894 333.947 250.52 335.378 235.721 395.497 L172.896 650.707 C166.768 675.599 139.462 696.704 113.83 696.36 L105.625 696.25 C75.6887 695.848 56.3256 670.406 63.9147 641.445 L220.263 44.791 C226.53 20.8752 253.58 0 278.303 0 L288.212 0 C311.913 0 338.996 20.2166 345.735 42.9398 L430.729 329.521 C448.075 388.01 528.957 387.727 545.894 329.118 L628.475 43.3431 C635.117 20.3594 662.192 0 686.117 0 L694.98 0 C719.528 0 748.946 29.6136 755.299 53.3245 C809.289 254.833 862.956 456.984 916.965 658.454 C924.707 687.332 900.46 696.808 870.563 696.875 L870.563 696.875 Z " />
<glyph glyph-name="x" unicode="x" horiz-adv-x="804" d="M53.182 0.0122383 L151.839 0.39169 C163.796 0.437678 190.306 13.0044 197.91 22.2315 L364.858 224.799 C390.308 255.68 433.224 255.301 458.126 223.977 L631.186 6.2822 C631.317 6.11735 634.392 1.68059 634.5 1.5 C635.21 0.316724 637.536 -1 638.915 -1 L751.464 -1 C752.844 -1 753.476 0.524246 752.5 1.5 L752.379 1.6206 C752.233 1.76745 748.031 6.46818 747.902 6.63053 L500.373 316.926 C483.966 337.493 484.262 372.267 501.016 392.552 L750 694 L752 696.5 C752.859 697.574 752.174 698.993 750.798 698.988 L652.174 698.608 C640.208 698.562 613.696 685.989 606.089 676.751 L454.014 492.088 C428.621 461.254 385.766 461.568 360.828 492.771 L201.82 691.723 C201.686 691.89 198.61 696.316 198.5 696.5 C197.79 697.683 195.464 699 194.085 699 L81.5355 699 C80.1556 699 79.5242 697.476 80.5 696.5 L80.6346 696.365 C80.7797 696.22 84.9597 691.547 85.0878 691.386 L318.627 399.024 C335.031 378.487 334.772 343.723 318.063 323.434 L56.8413 6.23587 C56.7434 6.11699 53.0608 2.06079 52.9519 1.95189 L52.75 1.75 C51.8752 0.875205 51.9448 0.00748007 53.182 0.0122383 L53.182 0.0122383 Z " />
<glyph glyph-name="y" unicode="y" horiz-adv-x="810" d="M642 694 L450.66 446.619 C425.225 413.734 380.892 413.824 355.591 446.812 L167.774 691.687 C167.663 691.832 164.594 696.343 164.5 696.5 C163.79 697.683 161.464 699 160.085 699 L51.8284 699 C50.7245 699 50.2194 697.781 51 697 C51.1418 696.858 54.604 692.918 54.7265 692.76 L339.526 323.188 C343.728 317.734 352 293.449 352 286.564 L352 51.5 C352 23.0735 375.074 0 403.5 0 C431.926 0 455 23.0735 455 51.5 L455 286.431 C455 293.398 465.879 321.003 470.154 326.504 C553.518 433.793 637.188 541.388 720.604 648.729 C735.805 668.29 727.021 697.92 702.25 698.25 L649.051 698.959 C647.659 698.978 645.049 697.641 644.25 696.5 L642.5 694 L642 694 Z " />
<glyph glyph-name="&amp;#xfd;" unicode="&#xfd;" horiz-adv-x="810" d="M642 694 L450.66 446.619 C425.225 413.734 380.892 413.824 355.591 446.812 L167.774 691.687 C167.663 691.832 164.594 696.343 164.5 696.5 C163.79 697.683 161.464 699 160.085 699 L51.8284 699 C50.7245 699 50.2194 697.781 51 697 C51.1418 696.858 54.604 692.918 54.7265 692.76 L339.526 323.188 C343.728 317.734 352 293.449 352 286.564 L352 51.5 C352 23.0735 375.074 0 403.5 0 C431.926 0 455 23.0735 455 51.5 L455 286.431 C455 293.398 465.879 321.003 470.154 326.504 C553.518 433.793 637.188 541.388 720.604 648.729 C735.805 668.29 727.021 697.92 702.25 698.25 L649.051 698.959 C647.659 698.978 645.049 697.641 644.25 696.5 L642.5 694 L642 694 Z " />
<glyph glyph-name="&amp;#xff;" unicode="&#xff;" horiz-adv-x="810" d="M642 694 L450.66 446.619 C425.225 413.734 380.892 413.824 355.591 446.812 L167.774 691.687 C167.663 691.832 164.594 696.343 164.5 696.5 C163.79 697.683 161.464 699 160.085 699 L51.8284 699 C50.7245 699 50.2194 697.781 51 697 C51.1418 696.858 54.604 692.918 54.7265 692.76 L339.526 323.188 C343.728 317.734 352 293.449 352 286.564 L352 51.5 C352 23.0735 375.074 0 403.5 0 C431.926 0 455 23.0735 455 51.5 L455 286.431 C455 293.398 465.879 321.003 470.154 326.504 C553.518 433.793 637.188 541.388 720.604 648.729 C735.805 668.29 727.021 697.92 702.25 698.25 L649.051 698.959 C647.659 698.978 645.049 697.641 644.25 696.5 L642.5 694 L642 694 Z " />
<glyph glyph-name="z" unicode="z" horiz-adv-x="778" d="M685.5 85 L339.822 85 C283.176 85 257.353 147.759 297.595 187.625 L710.226 596.393 C717.196 603.297 728 629.208 728 639.018 L728 656.5 C728 679.959 708.959 699 685.5 699 L106.5 699 C83.0413 699 64 679.959 64 656.5 C64 633.041 83.0413 614 106.5 614 L437.372 614 C493.996 614 519.828 551.302 479.638 511.414 L67.7337 102.601 C60.7862 95.7052 50 69.8032 50 60.0147 L50 42.5 C50 19.0413 69.0413 0 92.5 0 L685.5 0 C708.959 0 728 19.0413 728 42.5 C728 65.9587 708.959 85 685.5 85 L685.5 85 Z " />
<glyph glyph-name="nbspace" unicode="&#xa0;" horiz-adv-x="389" d="" />
</font>
</svg>
